<?xml version="1.0" encoding="utf-8"?>
<!-- Generator: Adobe Illustrator 16.0.0, SVG Export Plug-In . SVG Version: 6.00 Build 0)  -->
<!DOCTYPE svg PUBLIC "-//W3C//DTD SVG 1.1//EN" "http://www.w3.org/Graphics/SVG/1.1/DTD/svg11.dtd">
<svg version="1.1" id="Capa_1" xmlns="http://www.w3.org/2000/svg" xmlns:xlink="http://www.w3.org/1999/xlink" x="0px" y="0px"
	 width="2000px" height="2000px" viewBox="0 0 2000 2000" enable-background="new 0 0 2000 2000" xml:space="preserve">
<g>
	<g>
		<path fill="#282828" stroke="#282828" stroke-width="10" stroke-miterlimit="10" d="M1888.668,1294.778
			c-16.426,0-32.016,3.605-46.063,10.016l-115.733-115.734c-7.328-7.324-17.261-11.44-27.62-11.44h-181.82V1039.06h267.003v0.004
			c15.855,42.172,56.589,72.266,104.237,72.266c61.387,0,111.328-49.941,111.328-111.327c0-61.391-49.941-111.336-111.328-111.336
			c-47.644,0-88.378,30.098-104.237,72.273h-267.003V822.375h181.82c10.359,0,20.297-4.117,27.621-11.441l115.732-115.734
			c14.047,6.414,29.637,10.016,46.063,10.016c61.387,0,111.328-49.94,111.328-111.327s-49.941-111.327-111.328-111.327
			c-61.386,0-111.327,49.94-111.327,111.327c0,16.426,3.605,32.02,10.02,46.066l-104.288,104.292h-165.64V521.622
			c0-21.573-17.488-39.062-39.063-39.062h-222.62V316.931l104.293-104.292c14.05,6.41,29.64,10.016,46.065,10.016
			c61.387,0,111.327-49.941,111.327-111.327C1517.436,49.941,1467.495,0,1406.109,0c-61.386,0-111.327,49.941-111.327,111.328
			c0,16.426,3.605,32.015,10.016,46.065l-115.734,115.734c-7.324,7.328-11.441,17.262-11.441,27.621v181.815H1039.06V215.565
			c42.172-15.859,72.266-56.59,72.266-104.237C1111.325,49.941,1061.384,0,999.998,0C938.612,0,888.67,49.941,888.67,111.328
			c0,47.644,30.094,88.378,72.266,104.237v267.003H822.374V300.749c0-10.359-4.117-20.293-11.441-27.621L695.203,157.393
			c6.414-14.051,10.02-29.64,10.02-46.065C705.223,49.941,655.281,0,593.895,0S482.568,49.941,482.568,111.328
			c0,61.386,49.94,111.327,111.327,111.327c16.426,0,32.016-3.605,46.063-10.016l104.292,104.292v165.633h-222.62
			c-21.573,0-39.062,17.488-39.062,39.062V744.25H316.932L212.643,639.958c6.414-14.047,10.02-29.641,10.02-46.066
			c0-61.387-49.94-111.327-111.327-111.327S0.008,532.505,0.008,593.891s49.94,111.327,111.327,111.327
			c16.426,0,32.016-3.605,46.063-10.016l115.733,115.734c7.324,7.324,17.262,11.441,27.621,11.441h181.819v138.565H215.569
			c-15.854-42.18-56.589-72.277-104.237-72.277c-61.387,0-111.327,49.945-111.327,111.336c0,61.386,49.94,111.327,111.327,111.327
			c47.645,0,88.379-30.094,104.237-72.266h266.999v138.559H300.752c-10.359,0-20.297,4.117-27.621,11.44l-115.733,115.734
			c-14.047-6.414-29.637-10.016-46.063-10.016c-61.387,0-111.327,49.94-111.327,111.327s49.94,111.327,111.327,111.327
			s111.323-49.944,111.323-111.331c0-16.426-3.605-32.02-10.02-46.066l104.289-104.292h165.64v222.624
			c0,21.57,17.487,39.062,39.062,39.062h222.62v165.632l-104.292,104.293c-14.047-6.414-29.637-10.016-46.063-10.016
			c-61.387,0-111.327,49.941-111.327,111.327c0,61.387,49.94,111.327,111.327,111.327s111.327-49.94,111.327-111.327
			c0-16.426-3.605-32.016-10.02-46.065l115.73-115.734c7.323-7.328,11.44-17.262,11.44-27.621v-181.814h138.563v267.002
			c-42.172,15.859-72.266,56.59-72.266,104.237c0,61.387,49.941,111.328,111.327,111.328c61.387,0,111.328-49.941,111.328-111.328
			c0-47.644-30.094-88.378-72.266-104.237v-267.002h138.565v181.815c0,10.358,4.117,20.292,11.441,27.62l115.73,115.734
			c-6.414,14.051-10.02,29.641-10.02,46.066c0,61.386,49.94,111.327,111.327,111.327c61.386,0,111.327-49.941,111.327-111.327
			c0-61.387-49.941-111.328-111.327-111.328c-16.426,0-32.016,3.605-46.063,10.016l-104.292-104.292v-165.632h222.619
			c21.574,0,39.063-17.492,39.063-39.063v-222.624h165.64l104.288,104.293c-6.414,14.046-10.02,29.64-10.02,46.065
			c0,61.387,49.941,111.328,111.328,111.328s111.327-49.941,111.327-111.328C1999.996,1344.719,1950.055,1294.778,1888.668,1294.778
			z M1888.668,966.792c18.309,0,33.203,14.898,33.203,33.211c0,18.304-14.895,33.202-33.203,33.202s-33.203-14.898-33.203-33.202
			C1855.465,981.69,1870.364,966.792,1888.668,966.792z M1888.668,560.688c18.309,0,33.203,14.895,33.203,33.203
			c0,18.305-14.895,33.203-33.203,33.203s-33.203-14.898-33.203-33.203S1870.364,560.688,1888.668,560.688z M1406.109,78.125
			c18.309,0,33.203,14.895,33.203,33.203s-14.895,33.202-33.203,33.202s-33.203-14.894-33.203-33.202S1387.8,78.125,1406.109,78.125
			z M593.899,144.53c-18.309,0-33.203-14.894-33.203-33.202s14.895-33.203,33.203-33.203s33.203,14.895,33.203,33.203
			S612.207,144.53,593.899,144.53z M111.331,627.094c-18.309,0-33.203-14.895-33.203-33.203s14.895-33.203,33.203-33.203
			s33.203,14.895,33.203,33.203C144.534,612.196,129.64,627.094,111.331,627.094z M111.331,1033.205
			c-18.309,0-33.203-14.898-33.203-33.202c0-18.313,14.895-33.211,33.203-33.211s33.203,14.898,33.203,33.211
			C144.534,1018.31,129.644,1033.205,111.331,1033.205z M111.331,1439.308c-18.309,0-33.203-14.898-33.203-33.203
			s14.895-33.203,33.203-33.203s33.203,14.898,33.203,33.203S129.644,1439.308,111.331,1439.308z M593.899,1921.872
			c-18.309,0-33.203-14.898-33.203-33.203c0-18.309,14.895-33.203,33.203-33.203s33.203,14.895,33.203,33.203
			S612.207,1921.872,593.899,1921.872z M1406.105,1855.466c18.309,0,33.203,14.895,33.203,33.203
			c0,18.305-14.895,33.203-33.203,33.203s-33.203-14.898-33.203-33.203C1372.902,1870.36,1387.796,1855.466,1406.105,1855.466z
			 M999.998,78.125c18.309,0,33.202,14.895,33.202,33.203s-14.894,33.202-33.202,33.202s-33.203-14.894-33.203-33.202
			C966.799,93.019,981.694,78.125,999.998,78.125z M999.998,1921.872c-18.309,0-33.203-14.898-33.203-33.203
			c0-18.309,14.895-33.203,33.203-33.203c18.308,0,33.202,14.895,33.202,33.203S1018.31,1921.872,999.998,1921.872z
			 M1439.312,1439.308h-0.004H560.696v-878.62h878.616V1439.308z M1888.668,1439.308c-18.309,0-33.203-14.898-33.203-33.203
			s14.895-33.203,33.203-33.203c18.313,0,33.203,14.895,33.203,33.203C1921.871,1424.41,1906.977,1439.308,1888.668,1439.308z"/>
	</g>
</g>
<g>
	<g>
		<path fill="#282828" stroke="#282828" stroke-width="10" stroke-miterlimit="10" d="M1324.149,906.483
			c-21.574,0-39.063,17.492-39.063,39.063v1.855c0,21.57,17.488,39.063,39.063,39.063s39.063-17.492,39.063-39.063v-1.855
			C1363.211,923.971,1345.723,906.483,1324.149,906.483z"/>
	</g>
</g>
<g>
	<g>
		<path fill="#282828" stroke="#282828" stroke-width="10" stroke-miterlimit="10" d="M1324.149,631.009
			c-21.574,0-39.063,17.492-39.063,39.062v161.867c0,21.573,17.488,39.062,39.063,39.062s39.063-17.488,39.063-39.062V670.07
			C1363.211,648.501,1345.723,631.009,1324.149,631.009z"/>
	</g>
</g>
<g>
	<g>
		<path fill="#282828" stroke="#282828" stroke-width="10" stroke-miterlimit="10" d="M675.852,1013.537
			c-21.574,0-39.063,17.492-39.063,39.063v1.855c0,21.57,17.488,39.063,39.063,39.063c21.573,0,39.062-17.492,39.062-39.063v-1.855
			C714.913,1031.025,697.425,1013.537,675.852,1013.537z"/>
	</g>
</g>
<g>
	<g>
		<path fill="#282828" stroke="#282828" stroke-width="10" stroke-miterlimit="10" d="M675.852,1128.998
			c-21.574,0-39.063,17.492-39.063,39.063v161.865c0,21.574,17.488,39.063,39.063,39.063c21.573,0,39.062-17.488,39.062-39.063
			V1168.06C714.913,1146.49,697.425,1128.998,675.852,1128.998z"/>
	</g>
</g>
</svg>
